<svg width="30" height="30" viewBox="0 0 30 30" fill="none" xmlns="http://www.w3.org/2000/svg">
<path d="M14.9994 0C9.42113 0 4.90039 4.5208 4.90039 10.099C4.90039 15.7921 7.72215 17.005 10.841 20.7921C14.5714 25.3219 14.9994 30 14.9994 30C14.9994 30 15.4273 25.3219 19.1578 20.7921C22.2766 17.005 25.0984 15.7921 25.0984 10.099C25.0984 4.5208 20.5776 0 14.9994 0ZM14.9994 13.5891C13.0718 13.5891 11.5093 12.0265 11.5093 10.099C11.5093 8.17154 13.0719 6.60896 14.9994 6.60896C16.9269 6.60896 18.4895 8.17154 18.4895 10.099C18.4895 12.0265 16.9269 13.5891 14.9994 13.5891Z" fill="#333333"/>
</svg>
