<svg width="49" height="48" viewBox="0 0 49 48" fill="none" xmlns="http://www.w3.org/2000/svg">
<g clip-path="url(#clip0_18047_1686)">
<mask id="mask0_18047_1686" style="mask-type:luminance" maskUnits="userSpaceOnUse" x="0" y="1" width="48" height="46">
<path d="M47.8055 1.0957L0.341797 1.0957L0.341797 46.6973H47.8055V1.0957Z" fill="white"/>
</mask>
<g mask="url(#mask0_18047_1686)">
<path d="M47.8055 20.5138C47.8055 9.80611 37.1593 1.0957 24.0731 1.0957C10.987 1.0957 0.341797 9.80611 0.341797 20.5138C0.341797 30.1147 8.78477 38.1529 20.1883 39.6767C20.9619 39.8438 22.0133 40.1891 22.2798 40.8562C22.4646 41.5633 22.4905 42.3024 22.3556 43.0205C22.3556 43.0205 22.0769 44.7073 22.0174 45.07C21.915 45.6736 21.5399 47.4352 24.0721 46.3582C26.6043 45.2811 37.7403 38.2431 42.7227 32.4666C46.1617 28.6596 47.8085 24.8024 47.8085 20.5158M15.7008 26.233C15.7011 26.2938 15.6894 26.3541 15.6664 26.4104C15.6433 26.4667 15.6095 26.5179 15.5666 26.5611C15.5238 26.6043 15.4729 26.6386 15.4168 26.6622C15.3607 26.6857 15.3006 26.6979 15.2397 26.6982H8.58801C8.46831 26.6983 8.35347 26.6511 8.26829 26.567H8.26316L8.25702 26.5619C8.17388 26.4728 8.12835 26.3549 8.12995 26.233V15.8071C8.12969 15.6841 8.17817 15.5659 8.26477 15.4786C8.35136 15.3912 8.46908 15.3417 8.59211 15.3408H10.2543C10.3152 15.3411 10.3754 15.3534 10.4316 15.377C10.4878 15.4006 10.5387 15.435 10.5815 15.4783C10.6244 15.5216 10.6583 15.573 10.6812 15.6294C10.7042 15.6858 10.7158 15.7462 10.7154 15.8071V24.0861H15.2397C15.3627 24.0872 15.4803 24.1369 15.5667 24.2246C15.6532 24.3121 15.7014 24.4303 15.7008 24.5534V26.233ZM19.7138 26.233C19.7141 26.2939 19.7023 26.3543 19.6792 26.4106C19.6562 26.467 19.6221 26.5182 19.5792 26.5615C19.5363 26.6047 19.4853 26.639 19.429 26.6625C19.3728 26.686 19.3125 26.6981 19.2516 26.6982H17.5864C17.4634 26.6977 17.3458 26.6484 17.2591 26.5612C17.1725 26.474 17.124 26.3559 17.1242 26.233V15.8071C17.124 15.6841 17.1725 15.5659 17.2591 15.4786C17.3456 15.3912 17.4634 15.3417 17.5864 15.3408H19.2516C19.3126 15.3411 19.3729 15.3534 19.4291 15.3769C19.4853 15.4005 19.5364 15.435 19.5793 15.4783C19.6222 15.5216 19.6562 15.5729 19.6793 15.6293C19.7023 15.6857 19.7141 15.7462 19.7138 15.8071V26.233ZM31.1716 26.233C31.1719 26.2938 31.1601 26.3541 31.1371 26.4104C31.1141 26.4667 31.0802 26.5179 31.0374 26.5611C30.9946 26.6043 30.9437 26.6386 30.8875 26.6622C30.8314 26.6857 30.7713 26.6979 30.7105 26.6982H29.0452C29.0055 26.6983 28.9658 26.6932 28.9274 26.6828H28.9212C28.911 26.6828 28.8997 26.6777 28.8895 26.6726L28.8751 26.6675C28.8679 26.6675 28.8597 26.6603 28.8526 26.6582C28.8445 26.6553 28.8369 26.6511 28.83 26.6459C28.8253 26.6451 28.8208 26.6434 28.8167 26.6408L28.789 26.6234H28.7839C28.7393 26.5926 28.6999 26.5549 28.6671 26.5117L23.9225 20.0465V26.233C23.9227 26.2939 23.911 26.3543 23.8879 26.4106C23.8648 26.467 23.8308 26.5182 23.7879 26.5615C23.745 26.6047 23.6939 26.639 23.6377 26.6625C23.5815 26.686 23.5212 26.6981 23.4603 26.6982H21.7951C21.7342 26.6979 21.6741 26.6857 21.618 26.6622C21.5619 26.6386 21.511 26.6043 21.4682 26.5611C21.4253 26.5179 21.3915 26.4667 21.3684 26.4104C21.3454 26.3541 21.3337 26.2938 21.3339 26.233V15.8071C21.3334 15.6842 21.3817 15.566 21.4681 15.4786C21.5545 15.3912 21.6721 15.3417 21.7951 15.3408H23.4747C23.4839 15.3408 23.491 15.3408 23.4992 15.3408C23.5078 15.3399 23.5163 15.3399 23.5249 15.3408C23.5313 15.3401 23.5379 15.3401 23.5443 15.3408C23.5529 15.3401 23.5614 15.3401 23.57 15.3408H23.5853C23.5949 15.3438 23.6041 15.3475 23.613 15.3521C23.6181 15.3507 23.6233 15.3507 23.6284 15.3521C23.6372 15.3544 23.6457 15.3575 23.654 15.3613L23.6694 15.3695C23.6783 15.3743 23.6868 15.3798 23.695 15.3859H23.7083C23.7175 15.391 23.7247 15.3992 23.7339 15.4033L23.7462 15.4146C23.7549 15.4212 23.7631 15.4284 23.7708 15.4361L23.779 15.4443C23.7894 15.4532 23.7987 15.4631 23.8067 15.474C23.8197 15.4882 23.8317 15.5032 23.8425 15.5191L28.582 21.9751V15.8071C28.5815 15.6842 28.6298 15.566 28.7162 15.4786C28.8026 15.3912 28.9203 15.3417 29.0432 15.3408H30.7084C30.8314 15.3417 30.949 15.3912 31.0354 15.4786C31.1218 15.566 31.1701 15.6842 31.1695 15.8071L31.1716 26.233ZM40.3637 17.4856C40.3637 17.6082 40.3152 17.7259 40.2288 17.8129C40.1424 17.8998 40.0251 17.9491 39.9025 17.9499H35.3803V19.7124H39.9035C39.9647 19.7129 40.0251 19.7253 40.0815 19.7491C40.1378 19.773 40.1888 19.8077 40.2317 19.8513C40.2745 19.8949 40.3083 19.9466 40.3311 20.0033C40.3539 20.06 40.3654 20.1207 40.3647 20.1818V21.8572C40.3649 21.9802 40.3167 22.0981 40.2303 22.1855C40.1439 22.2728 40.0264 22.3224 39.9035 22.3235H35.3803V24.0861H39.9035C40.0266 24.0872 40.1442 24.1369 40.2306 24.2246C40.317 24.3121 40.3653 24.4303 40.3647 24.5534V26.233C40.3649 26.2938 40.3532 26.3541 40.3302 26.4104C40.3072 26.4667 40.2733 26.5179 40.2304 26.5611C40.1877 26.6043 40.1367 26.6386 40.0806 26.6622C40.0245 26.6857 39.9644 26.6979 39.9035 26.6982H33.2529C33.1331 26.6986 33.0181 26.6514 32.9332 26.567H32.927L32.9209 26.5619C32.8385 26.4742 32.7923 26.3585 32.7917 26.2381V15.8071C32.7919 15.6871 32.8377 15.5717 32.9198 15.4843L32.927 15.4781H32.9321C32.974 15.4355 33.0238 15.4019 33.079 15.3789C33.1341 15.3561 33.1932 15.3445 33.2529 15.3449H39.9035C40.0265 15.3458 40.1441 15.3953 40.2305 15.4827C40.317 15.5701 40.3653 15.6883 40.3647 15.8112L40.3637 17.4856Z" fill="#333333"/>
</g>
</g>
<defs>
<clipPath id="clip0_18047_1686">
<rect width="48.0355" height="46.114" fill="white" transform="translate(0.171875 0.959961)"/>
</clipPath>
</defs>
</svg>
