<svg width="40" height="40" viewBox="0 0 40 40" fill="none" xmlns="http://www.w3.org/2000/svg">
<g clip-path="url(#clip0_18047_1682)">
<path d="M19.4982 4.39782C24.6448 4.39782 25.2548 4.41709 27.2874 4.50961C28.5096 4.52402 29.7201 4.74865 30.8659 5.17366C31.7036 5.48381 32.4611 5.97782 33.0826 6.61933C33.7241 7.2409 34.2181 7.99837 34.5283 8.83602C34.9533 9.98195 35.1779 11.1924 35.1923 12.4145C35.2887 14.4471 35.3041 15.0572 35.3041 20.2038C35.3041 25.3503 35.2849 25.9604 35.1923 27.993C35.1779 29.2151 34.9533 30.4256 34.5283 31.5715C34.2078 32.404 33.7162 33.1601 33.0854 33.791C32.4546 34.4218 31.6985 34.9133 30.8659 35.2339C29.7201 35.6589 28.5096 35.8835 27.2874 35.8979C25.2548 35.9943 24.6457 36.0097 19.4982 36.0097C14.3507 36.0097 13.7415 35.9904 11.7089 35.8979C10.485 35.8828 9.27281 35.6569 8.12562 35.23C7.28797 34.9199 6.53051 34.4259 5.90894 33.7843C5.26743 33.1628 4.77343 32.4053 4.46328 31.5677C4.03827 30.4217 3.81364 29.2112 3.79923 27.9892C3.71538 25.9604 3.69225 25.3503 3.69225 20.2038C3.69225 15.0572 3.71153 14.4471 3.80405 12.4145C3.81914 11.1906 4.04508 9.97839 4.47195 8.8312C4.7821 7.99355 5.2761 7.23609 5.91761 6.61451C6.53918 5.973 7.29665 5.47899 8.13429 5.16884C9.28022 4.74383 10.4907 4.5192 11.7128 4.5048C13.7415 4.42095 14.3516 4.39782 19.4982 4.39782ZM19.4982 0.928223C14.2629 0.928223 13.6066 0.95039 11.5509 1.04387C9.95203 1.07621 8.37029 1.37927 6.87271 1.94019C5.58628 2.42406 4.42094 3.18286 3.45806 4.16362C2.47729 5.12651 1.71849 6.29184 1.23462 7.57829C0.673596 9.07612 0.370532 10.6583 0.33831 12.2574C0.244823 14.3122 0.222656 14.9685 0.222656 20.2038C0.222656 25.439 0.244823 26.0953 0.33831 28.1511C0.370641 29.7499 0.673703 31.3317 1.23462 32.8292C1.71861 34.1153 2.47741 35.2803 3.45806 36.2429C4.42085 37.2241 5.58619 37.9832 6.87271 38.4673C8.3706 39.0284 9.9527 39.3314 11.5518 39.3636C13.6076 39.46 14.2639 39.4793 19.4991 39.4793C24.7344 39.4793 25.3907 39.4571 27.4465 39.3636C29.0456 39.3314 30.6278 39.0284 32.1256 38.4673C33.4058 37.9717 34.5684 37.2142 35.5389 36.2434C36.5095 35.2725 37.2666 34.1096 37.7618 32.8292C38.3228 31.3314 38.6258 29.7493 38.6581 28.1501C38.7544 26.0944 38.7737 25.438 38.7737 20.2028C38.7737 14.9676 38.7516 14.3112 38.6581 12.2555C38.6257 10.657 38.3226 9.07551 37.7618 7.57829C37.2778 6.29219 36.519 5.12719 35.5383 4.16458C34.5756 3.18347 33.4102 2.42434 32.1237 1.94019C30.6261 1.37927 29.0443 1.07621 27.4455 1.04387C25.3898 0.95039 24.7334 0.928223 19.4982 0.928223Z" fill="#333333"/>
<path d="M19.4976 10.3037C17.5397 10.3035 15.6257 10.884 13.9977 11.9716C12.3696 13.0592 11.1007 14.6052 10.3513 16.4141C9.60201 18.2229 9.40588 20.2133 9.78784 22.1336C10.1697 24.0539 11.1126 25.8178 12.497 27.2023C13.8814 28.5867 15.6454 29.5296 17.5656 29.9114C19.486 30.2934 21.4764 30.0973 23.2852 29.3479C25.0941 28.5985 26.6401 27.3297 27.7277 25.7016C28.8153 24.0736 29.3958 22.1596 29.3956 20.2017C29.3956 17.5766 28.3528 15.059 26.4965 13.2028C24.6403 11.3465 22.1227 10.3037 19.4976 10.3037ZM19.4976 26.6272C18.2267 26.6272 16.9844 26.2504 15.9278 25.5443C14.8711 24.8382 14.0475 23.8347 13.5612 22.6607C13.0749 21.4865 12.9476 20.1946 13.1955 18.9481C13.4434 17.7017 14.0554 16.5568 14.954 15.6582C15.8527 14.7596 16.9976 14.1476 18.244 13.8997C19.4904 13.6518 20.7824 13.779 21.9565 14.2653C23.1306 14.7517 24.1341 15.5752 24.8402 16.6319C25.5463 17.6885 25.9231 18.9308 25.9231 20.2017C25.9231 21.9058 25.2461 23.5402 24.0411 24.7452C22.8361 25.9502 21.2017 26.6272 19.4976 26.6272Z" fill="#333333"/>
<path d="M32.1007 9.91316C32.1007 10.3707 31.9651 10.8178 31.711 11.1982C31.4568 11.5786 31.0955 11.8751 30.6728 12.0502C30.2502 12.2253 29.7851 12.271 29.3364 12.1818C28.8877 12.0926 28.4756 11.8722 28.1521 11.5488C27.8286 11.2253 27.6083 10.8131 27.5191 10.3645C27.4298 9.91575 27.4756 9.45067 27.6507 9.02799C27.8258 8.60532 28.1223 8.24408 28.5026 7.98995C28.883 7.73575 29.3302 7.6001 29.7877 7.6001C30.0914 7.6001 30.3922 7.65991 30.6728 7.77617C30.9535 7.89242 31.2085 8.06283 31.4233 8.27757C31.6381 8.49237 31.8085 8.74735 31.9247 9.02799C32.0409 9.30863 32.1007 9.60939 32.1007 9.91316Z" fill="#333333"/>
</g>
<defs>
<clipPath id="clip0_18047_1682">
<rect width="39.1534" height="39.1534" fill="white" transform="translate(0.216797 0.44043)"/>
</clipPath>
</defs>
</svg>
