<svg width="38" height="44" viewBox="0 0 38 44" fill="none" xmlns="http://www.w3.org/2000/svg">
<g clip-path="url(#clip0_18047_1694)">
<path d="M38 18.5883C34.2644 18.5962 30.6208 17.4416 27.5839 15.2877V30.3041C27.5831 33.0852 26.7246 35.7998 25.1234 38.0847C23.5221 40.3697 21.2545 42.1161 18.6236 43.0903C15.9928 44.0646 13.1242 44.2204 10.4016 43.5367C7.67896 42.853 5.23204 41.3626 3.3881 39.2647C1.54416 37.1668 0.391106 34.5614 0.0831543 31.7971C-0.224798 29.0327 0.327032 26.2412 1.66484 23.7958C3.00265 21.3504 5.06266 19.3677 7.56935 18.1129C10.076 16.8581 12.9099 16.3911 15.692 16.7742V24.3244C14.4199 23.9279 13.0538 23.9395 11.7887 24.3576C10.5237 24.7756 9.42439 25.5787 8.6478 26.6522C7.8712 27.7257 7.45702 29.0147 7.4644 30.3352C7.47177 31.6556 7.90032 32.94 8.68885 34.005C9.47738 35.0699 10.5856 35.8609 11.8552 36.2651C13.1249 36.6693 14.491 36.6659 15.7586 36.2555C17.0262 35.8451 18.1304 35.0486 18.9136 33.9799C19.6968 32.9111 20.1189 31.6246 20.1197 30.3041V0.959961H27.5839C27.5797 1.58503 27.6337 2.20915 27.7451 2.82441C28.0047 4.19588 28.544 5.50053 29.3301 6.65863C30.1162 7.81673 31.1325 8.80395 32.317 9.55996C34.003 10.6625 35.9794 11.2496 38 11.248V18.5883Z" fill="#333333"/>
</g>
<defs>
<clipPath id="clip0_18047_1694">
<rect width="38" height="43" fill="white" transform="translate(0 0.959961)"/>
</clipPath>
</defs>
</svg>
