<svg width="514" height="133" viewBox="0 0 514 133" fill="none" xmlns="http://www.w3.org/2000/svg">
<path d="M1.52148 25.2274C3.02117 24.7275 4.52085 24.2276 27.0388 20.4708C49.5568 16.714 93.0476 9.71549 118.451 6.11019C143.855 2.50489 149.854 2.50489 153.194 3.75463C158.221 5.6353 158.549 12.0786 160.814 15.3582C165.369 21.9555 180.211 20.6829 194.102 21.9402C215.505 23.8774 247.803 10.1396 262.035 5.29218C267.084 3.57223 272.646 2.50489 277.69 3.50468C285.535 5.05943 283.78 16.608 285.287 22.1598C286.225 25.6126 306.336 22.7279 333.838 18.4409C347.947 16.2416 353.947 13.6238 362.483 11.1091C377.761 6.60842 397.302 5.53455 411.942 6.2844C418.009 6.5951 419.1 13.0784 423.379 20.1527C428.312 28.3059 442.277 22.7127 481.057 21.6978C504.618 21.0812 508.975 17.1533 510.247 16.6458C512.366 15.801 503.461 17.6532 498.174 18.1531C492.223 18.7158 467.802 26.1817 431.484 36.2629C408.61 42.6123 396.438 50.9492 387.614 56.4935C381.02 60.6368 369.717 71.5964 355.333 85.4722C341.904 102.908 331.255 120.647 329.998 123.669C329.24 125.191 328.24 126.691 327.21 129.751" stroke="#F5C5CF" stroke-width="5"/>
<path d="M310.547 103.96C311.047 107.474 314.061 117.533 319.363 126.402C320.486 128.28 321.635 129.682 323.65 129.954C333.754 127.197 339.813 124.668 343.843 123.91C345.873 123.653 347.872 123.653 349.933 123.653" stroke="#F5C5CF" stroke-width="5"/>
</svg>
