<svg width="659" height="690" viewBox="0 0 659 690" fill="none" xmlns="http://www.w3.org/2000/svg">
<path d="M115.056 0C133.986 7.23713 159.08 15.1143 208.782 22.3891C246.759 27.9476 312.598 33.6206 355.092 36.1059C405.993 39.0828 433.448 31.182 460.032 23.8892C497.613 13.5795 527.148 15.109 573.708 16.4749C576.87 16.5677 582.009 16.8858 587.841 18.2806C592.593 19.417 605.112 22.9273 615.119 33.9066C627.854 47.8788 628.35 64.4172 624.258 76.2079C620.977 85.6619 615.089 91.8191 612.609 94.2595C607.168 99.6137 601.102 103.254 598.194 104.944C594.477 107.104 590.569 109.079 587.024 110.769C573.35 117.286 555.433 124.088 545.347 127.382C540.483 128.97 535.434 130.749 517.742 135.112C522.367 134.363 527.089 133.606 531.901 132.841C547.836 130.305 558.823 129.025 566.609 128.312C570.495 127.955 573.402 127.757 575.268 127.631C575.508 127.614 575.707 127.6 575.88 127.588C576.86 127.457 577.994 127.326 579.23 127.225C580.497 127.121 586.514 126.58 593.867 127.841C597.234 128.418 606.46 130.238 615.668 136.758C627.51 145.141 635.8 159.015 634.486 175.009C633.468 187.391 627.033 195.66 624.63 198.53C621.634 202.109 618.675 204.521 617.136 205.71C612.014 209.665 606.749 212.029 606.049 212.357C604.034 213.301 602.01 214.148 600.285 214.841C599.416 215.19 598.494 215.552 597.525 215.924C599.386 216.3 601.249 216.731 603.08 217.231L603.812 217.435L604.912 217.757C610.622 219.48 619.483 222.984 627.444 230.359C637.227 239.421 642.114 251.053 642.269 262.598C642.402 272.505 639.052 280.134 637.087 283.97C634.97 288.105 632.582 291.383 631.14 293.273C620.028 307.837 602.37 317.208 589 323.398C588.534 323.613 588.063 323.829 587.589 324.045C590.96 324.24 594.333 324.478 597.717 324.756C602.994 325.19 625.051 327.448 638.59 346.493C654.28 368.564 643.081 389.447 639.031 395.525C630.495 408.339 617.027 415.393 610.419 418.455C596.807 424.763 583.411 429.593 570.53 433.355C571.207 435.203 571.779 437.163 572.214 439.239L572.414 440.253L572.601 441.334C573.971 449.836 572.756 457.309 570.236 463.672C580.143 463.896 590.226 464.081 600.595 464.191C604.324 464.23 609.176 464.345 613.764 464.89C615.24 465.065 621.342 465.75 628.17 468.334C631.197 469.48 640.053 473.034 647.673 481.36C657.744 492.366 662.258 508.235 656.393 523.87C651.991 535.604 643.499 542.189 640.68 544.27C636.989 546.995 633.634 548.681 631.937 549.488C628.452 551.145 625.373 552.155 624.156 552.548C621.459 553.418 618.51 554.183 617.652 554.411C602.755 558.366 587.994 561.819 574.308 564.744C583.461 579.347 580.924 593.414 580.789 594.489C579.782 602.511 577.379 609.799 573.957 616.383L615.173 675.447C602.508 682.472 593.531 684.856 586.868 686.483C569.917 690.623 542.927 690.853 514.032 688.5C472.206 687.855 418.371 682.738 381.69 680.594C338.351 678.062 300.914 676.563 280.627 678.497C280.627 678.497 280.6 678.5 280.548 678.506C280.494 678.513 280.414 678.523 280.308 678.538C280.092 678.569 279.784 678.618 279.371 678.693C278.518 678.848 277.397 679.082 275.864 679.439C270.552 680.675 270.962 680.699 263.445 682.497C253.804 684.804 237.558 688.381 219.107 686.884C202.661 685.549 170.243 683.442 146.007 681.098C134.148 679.951 121.086 678.476 111.352 676.473C108.749 675.937 105.439 675.176 101.973 674.096C99.5002 673.325 92.5296 671.097 85.526 666.292C79.6809 662.281 57.2211 643.766 68.1479 615.401C70.7325 608.692 74.6298 603.626 78.2158 600.01C72.2901 598.758 64.2428 596.736 57.2929 593.524C54.6165 592.288 48.9558 589.486 43.3892 584.472C37.9922 579.612 27.1618 567.454 28.6135 549.15C29.1737 542.087 31.4064 536.167 34.2597 531.334C31.9982 530.636 28.3362 529.347 24.3832 527.223C21.7475 525.807 15.8649 522.399 10.4971 516.211C4.50127 509.298 -2.26459 496.944 0.734846 481.325C3.47272 467.067 12.8425 458.478 17.6882 454.804C22.7583 450.959 27.5424 448.892 29.8624 447.969C37.4085 444.967 44.5821 444.267 44.601 444.265C46.6681 444.003 48.5673 443.851 49.7434 443.765C58.9965 443.085 71.6337 443.004 82.3923 443.77C85.0202 443.957 87.6667 444.115 90.3236 444.249C87.1328 440.714 83.8477 435.995 81.6463 429.976C75.4486 413.03 81.5555 397.145 91.0521 387.116C90.2215 386.881 89.4281 386.652 88.6733 386.425C85.8112 385.565 79.3824 383.607 73.1808 380.168C71.185 379.061 61.1948 373.661 54.5879 362.503C50.595 355.759 47.4144 346.12 49.2922 334.875C51.1326 323.856 57.0677 315.877 62.1432 310.977C69.0324 304.327 76.5285 301.064 79.3524 299.889C83.1267 298.319 86.6619 297.266 89.352 296.56C94.6613 295.165 100.317 294.182 105.761 293.451C104.095 292.545 102.451 291.595 100.838 290.592C98.3033 289.018 86.7836 281.979 80.9344 268.203C77.3464 259.753 76.1345 249.209 79.9823 238.349C83.5809 228.193 90.2813 221.494 95.1671 217.681C103.762 210.972 112.826 208.46 115.259 207.781C119.041 206.725 122.479 206.115 124.574 205.774C127.592 205.283 130.267 204.73 133.039 204.083C119.244 199.951 112.126 197.121 105.333 193.321C104.731 192.985 97.6425 189.256 91.5521 182.854C88.4466 179.589 81.1968 171.155 79.5614 158.258C77.5568 142.449 84.9566 129.138 94.4738 120.775C102.245 113.946 110.532 111.01 114.248 109.839C118.647 108.454 122.622 107.741 125.386 107.336C130.93 106.525 136.772 106.23 142.209 106.119C149.823 105.964 156.915 105.8 163.53 105.633C123.749 98.4279 97.7215 90.3762 75.6465 81.9366L115.056 0ZM543.599 30.2517C544.038 29.997 543.975 30.0075 543.555 30.2761C543.57 30.2675 543.586 30.2597 543.599 30.2517Z" fill="#DADEE8"/>
</svg>
