<svg width="137" height="137" viewBox="0 0 137 137" fill="none" xmlns="http://www.w3.org/2000/svg">
<path d="M68.5 1L78.5314 5.16449L89.3586 4.30369L97.6121 11.3642L108.176 13.8914L113.843 23.1568L123.109 28.8245L125.636 39.3879L132.696 47.6414L131.836 58.4686L136 68.5L131.836 78.5314L132.696 89.3586L125.636 97.6121L123.109 108.176L113.843 113.843L108.176 123.109L97.6121 125.636L89.3586 132.696L78.5314 131.836L68.5 136L58.4686 131.836L47.6414 132.696L39.3879 125.636L28.8245 123.109L23.1568 113.843L13.8914 108.176L11.3642 97.6121L4.30369 89.3586L5.16449 78.5314L1 68.5L5.16449 58.4686L4.30369 47.6414L11.3642 39.3879L13.8914 28.8245L23.1568 23.1568L28.8245 13.8914L39.3879 11.3642L47.6414 4.30369L58.4686 5.16449L68.5 1Z" stroke="#333333"/>
</svg>
